<svg xmlns="http://www.w3.org/2000/svg" viewBox="0 0 440 248" role="img" aria-label="Do as I Do to VLA and WAM training data">
  <defs>
    <linearGradient id="bg2" x1="0%" y1="0%" x2="100%" y2="100%">
      <stop offset="0%" stop-color="#18181b"/>
      <stop offset="100%" stop-color="#27272a"/>
    </linearGradient>
    <linearGradient id="warm" x1="0%" y1="0%" x2="100%" y2="0%">
      <stop offset="0%" stop-color="#f97316"/>
      <stop offset="100%" stop-color="#ec4899"/>
    </linearGradient>
  </defs>
  <rect width="440" height="248" rx="12" fill="url(#bg2)"/>
  <rect x="18" y="18" width="404" height="212" rx="8" fill="none" stroke="#3f3f46" stroke-width="1.5"/>

  <text x="28" y="44" fill="#fafafa" font-family="system-ui, sans-serif" font-size="13" font-weight="700">Do as I Do ’ VLA / WAM</text>
  <text x="28" y="62" fill="#a1a1aa" font-family="system-ui, sans-serif" font-size="10">Human demo ’ robot-ready training data</text>

  <rect x="28" y="84" width="88" height="56" rx="6" fill="#292524" stroke="#78716c" stroke-width="1.2"/>
  <circle cx="72" cy="112" r="14" fill="none" stroke="#fdba74" stroke-width="2"/>
  <text x="72" y="136" fill="#d6d3d1" font-family="system-ui, sans-serif" font-size="8" text-anchor="middle">human video</text>

  <path d="M122 112 L148 112" stroke="#71717a" stroke-width="1.5"/>
  <polygon points="148,108 156,112 148,116" fill="#71717a"/>

  <rect x="160" y="84" width="88" height="56" rx="6" fill="#1c1917" stroke="#a8a29e" stroke-width="1.2"/>
  <text x="204" y="106" fill="#e7e5e4" font-family="system-ui, sans-serif" font-size="8" text-anchor="middle">reconstruct</text>
  <text x="204" y="120" fill="#a8a29e" font-family="system-ui, sans-serif" font-size="8" text-anchor="middle">6-DoF pose</text>

  <path d="M254 112 L280 112" stroke="#71717a" stroke-width="1.5"/>
  <polygon points="280,108 288,112 280,116" fill="#71717a"/>

  <rect x="292" y="84" width="88" height="56" rx="6" fill="#1e1b4b" stroke="#818cf8" stroke-width="1.2"/>
  <text x="336" y="106" fill="#ddd6fe" font-family="system-ui, sans-serif" font-size="8" text-anchor="middle">retarget</text>
  <text x="336" y="120" fill="#a5b4fc" font-family="system-ui, sans-serif" font-size="8" text-anchor="middle">robot hand</text>

  <rect x="28" y="158" width="352" height="52" rx="6" fill="#09090b" stroke="#52525b" stroke-width="1"/>
  <text x="44" y="180" fill="#fafafa" font-family="system-ui, sans-serif" font-size="9">VLA / WAM training corpus</text>
  <text x="44" y="196" fill="#a1a1aa" font-family="system-ui, sans-serif" font-size="9">vision · language · action trajectories from everyday manipulation</text>

  <rect x="312" y="166" width="68" height="22" rx="11" fill="url(#warm)"/>
  <text x="346" y="181" fill="#fff" font-family="system-ui, sans-serif" font-size="8.5" font-weight="700" text-anchor="middle">WIP</text>
</svg>
