<svg xmlns="http://www.w3.org/2000/svg" viewBox="0 0 440 248" role="img" aria-label="EvoWAM-0 closed-loop pipeline">
  <defs>
    <linearGradient id="bg" x1="0%" y1="0%" x2="100%" y2="100%">
      <stop offset="0%" stop-color="#0f172a"/>
      <stop offset="100%" stop-color="#1e293b"/>
    </linearGradient>
    <linearGradient id="accent" x1="0%" y1="0%" x2="100%" y2="0%">
      <stop offset="0%" stop-color="#38bdf8"/>
      <stop offset="100%" stop-color="#818cf8"/>
    </linearGradient>
  </defs>
  <rect width="440" height="248" rx="12" fill="url(#bg)"/>
  <rect x="18" y="18" width="404" height="212" rx="8" fill="none" stroke="#334155" stroke-width="1.5"/>

  <text x="28" y="44" fill="#e2e8f0" font-family="system-ui, sans-serif" font-size="13" font-weight="700">EvoWAM-0</text>
  <text x="28" y="62" fill="#94a3b8" font-family="system-ui, sans-serif" font-size="10">Closed-loop WAN + IDM agent</text>

  <rect x="28" y="82" width="72" height="48" rx="6" fill="#14532d" stroke="#22c55e" stroke-width="1.2"/>
  <text x="64" y="110" fill="#bbf7d0" font-family="monospace" font-size="9" text-anchor="middle">o_t</text>

  <path d="M106 106 L124 106" stroke="#64748b" stroke-width="1.5" marker-end="url(#arrow)"/>
  <rect x="128" y="82" width="72" height="48" rx="6" fill="#1e3a5f" stroke="#38bdf8" stroke-width="1.2"/>
  <text x="164" y="102" fill="#bae6fd" font-family="system-ui, sans-serif" font-size="8" text-anchor="middle">VLM</text>
  <text x="164" y="116" fill="#7dd3fc" font-family="system-ui, sans-serif" font-size="8" text-anchor="middle">caption</text>

  <path d="M206 106 L224 106" stroke="#64748b" stroke-width="1.5"/>
  <rect x="228" y="82" width="72" height="48" rx="6" fill="#312e81" stroke="#818cf8" stroke-width="1.2"/>
  <text x="264" y="102" fill="#ddd6fe" font-family="system-ui, sans-serif" font-size="8" text-anchor="middle">WAN-2.2</text>
  <text x="264" y="116" fill="#c4b5fd" font-family="system-ui, sans-serif" font-size="8" text-anchor="middle">imagine</text>

  <path d="M306 106 L324 106" stroke="#64748b" stroke-width="1.5"/>
  <rect x="328" y="82" width="72" height="48" rx="6" fill="#431407" stroke="#fb923c" stroke-width="1.2"/>
  <text x="364" y="102" fill="#fed7aa" font-family="system-ui, sans-serif" font-size="8" text-anchor="middle">VPT IDM</text>
  <text x="364" y="116" fill="#fdba74" font-family="system-ui, sans-serif" font-size="8" text-anchor="middle">decode</text>

  <rect x="28" y="148" width="372" height="62" rx="6" fill="#111827" stroke="#475569" stroke-width="1"/>
  <text x="44" y="172" fill="#cbd5e1" font-family="system-ui, sans-serif" font-size="9">MineStudio env</text>
  <text x="44" y="190" fill="#94a3b8" font-family="system-ui, sans-serif" font-size="9">explore ’ find stone ’ mine (receding horizon)</text>

  <rect x="300" y="156" width="84" height="22" rx="11" fill="url(#accent)"/>
  <text x="342" y="171" fill="#0f172a" font-family="system-ui, sans-serif" font-size="9" font-weight="700" text-anchor="middle">cycle 23 </text>
</svg>
